<?xml version="1.0" standalone="no"?>
<svg xmlns:xlink="http://www.w3.org/1999/xlink" id="wave" style="transform:rotate(0deg); transition: 0.3s" viewBox="0 0 1440 300" version="1.1" xmlns="http://www.w3.org/2000/svg"><defs><linearGradient id="sw-gradient-0" x1="0" x2="0" y1="1" y2="0"><stop stop-color="rgba(13, 11, 8, 1)" offset="0%"/><stop stop-color="rgba(13, 11, 8, 1)" offset="100%"/></linearGradient></defs><path style="transform:translate(0, 0px); opacity:1" fill="url(#sw-gradient-0)" d="M0,0L120,40C240,80,480,160,720,165C960,170,1200,100,1440,70C1680,40,1920,50,2160,50C2400,50,2640,40,2880,30C3120,20,3360,10,3600,25C3840,40,4080,80,4320,80C4560,80,4800,40,5040,60C5280,80,5520,160,5760,205C6000,250,6240,260,6480,250C6720,240,6960,210,7200,210C7440,210,7680,240,7920,240C8160,240,8400,210,8640,175C8880,140,9120,100,9360,75C9600,50,9840,40,10080,35C10320,30,10560,30,10800,65C11040,100,11280,170,11520,200C11760,230,12000,220,12240,205C12480,190,12720,170,12960,170C13200,170,13440,190,13680,195C13920,200,14160,190,14400,155C14640,120,14880,60,15120,50C15360,40,15600,80,15840,90C16080,100,16320,80,16560,90C16800,100,17040,140,17160,160L17280,180L17280,300L17160,300C17040,300,16800,300,16560,300C16320,300,16080,300,15840,300C15600,300,15360,300,15120,300C14880,300,14640,300,14400,300C14160,300,13920,300,13680,300C13440,300,13200,300,12960,300C12720,300,12480,300,12240,300C12000,300,11760,300,11520,300C11280,300,11040,300,10800,300C10560,300,10320,300,10080,300C9840,300,9600,300,9360,300C9120,300,8880,300,8640,300C8400,300,8160,300,7920,300C7680,300,7440,300,7200,300C6960,300,6720,300,6480,300C6240,300,6000,300,5760,300C5520,300,5280,300,5040,300C4800,300,4560,300,4320,300C4080,300,3840,300,3600,300C3360,300,3120,300,2880,300C2640,300,2400,300,2160,300C1920,300,1680,300,1440,300C1200,300,960,300,720,300C480,300,240,300,120,300L0,300Z"/></svg>